<svg xmlns="http://www.w3.org/2000/svg" viewBox="0 0 100 100">
  <defs>
    <linearGradient id="dnaGradient" x1="0%" y1="0%" x2="100%" y2="100%">
      <stop offset="0%" style="stop-color:#4CAF50;stop-opacity:1" />
      <stop offset="100%" style="stop-color:#2196F3;stop-opacity:1" />
    </linearGradient>
  </defs>

  <!-- Background circle -->
  <circle cx="50" cy="50" r="48" fill="url(#dnaGradient)" />

  <!-- DNA Helix Structure -->
  <!-- Left strand -->
  <path d="M 30 20 Q 25 35, 30 50 Q 35 65, 30 80"
        stroke="white" stroke-width="4" fill="none" stroke-linecap="round"/>

  <!-- Right strand -->
  <path d="M 70 20 Q 75 35, 70 50 Q 65 65, 70 80"
        stroke="white" stroke-width="4" fill="none" stroke-linecap="round"/>

  <!-- Connection bars -->
  <line x1="30" y1="25" x2="70" y2="25" stroke="white" stroke-width="3" opacity="0.9"/>
  <line x1="32" y1="35" x2="68" y2="35" stroke="white" stroke-width="3" opacity="0.9"/>
  <line x1="30" y1="45" x2="70" y2="45" stroke="white" stroke-width="3" opacity="0.9"/>
  <line x1="32" y1="55" x2="68" y2="55" stroke="white" stroke-width="3" opacity="0.9"/>
  <line x1="30" y1="65" x2="70" y2="65" stroke="white" stroke-width="3" opacity="0.9"/>
  <line x1="32" y1="75" x2="68" y2="75" stroke="white" stroke-width="3" opacity="0.9"/>

  <!-- DNA base pair dots -->
  <circle cx="30" cy="25" r="3.5" fill="white"/>
  <circle cx="70" cy="25" r="3.5" fill="white"/>
  <circle cx="32" cy="35" r="3.5" fill="white"/>
  <circle cx="68" cy="35" r="3.5" fill="white"/>
  <circle cx="30" cy="45" r="3.5" fill="white"/>
  <circle cx="70" cy="45" r="3.5" fill="white"/>
  <circle cx="32" cy="55" r="3.5" fill="white"/>
  <circle cx="68" cy="55" r="3.5" fill="white"/>
  <circle cx="30" cy="65" r="3.5" fill="white"/>
  <circle cx="70" cy="65" r="3.5" fill="white"/>
  <circle cx="32" cy="75" r="3.5" fill="white"/>
  <circle cx="68" cy="75" r="3.5" fill="white"/>
</svg>
